<svg xmlns="http://www.w3.org/2000/svg" width="1024" height="1024" viewBox="0 0 1024 1024">
<g>
<path d="M 776.00 892.62 L 762.50 895.42 L 599.00 895.50 C423.77,895.59 280.31,894.71 273.00,893.51 C270.52,893.11 268.01,892.38 267.42,891.91 C266.83,891.43 264.58,890.67 262.42,890.23 C257.56,889.21 257.33,887.60 262.00,887.19 C264.11,887.00 266.15,886.03 267.15,884.75 C268.94,882.44 268.58,880.00 266.45,880.00 C262.53,880.00 264.35,873.40 269.04,870.63 C270.67,869.67 272.00,868.43 272.00,867.87 C272.00,866.56 274.04,864.56 276.22,863.74 C277.17,863.38 278.22,861.83 278.55,860.29 C279.68,855.18 279.86,855.00 283.97,855.00 C286.19,855.00 288.00,854.58 288.00,854.07 C288.00,853.55 288.46,851.93 289.02,850.46 C290.01,847.85 290.09,847.83 292.60,849.47 C297.16,852.46 299.86,849.04 296.47,844.56 C295.39,843.13 295.31,842.43 296.16,841.90 C297.29,841.20 300.89,842.67 302.10,844.31 C302.43,844.76 304.68,844.99 307.10,844.81 C310.20,844.59 311.50,844.06 311.50,843.00 C311.50,842.17 312.29,840.71 313.25,839.75 C314.21,838.79 315.00,837.55 315.00,837.00 C315.00,835.78 310.81,835.74 305.78,836.91 C300.78,838.07 299.24,836.37 301.45,832.10 C303.24,828.64 305.77,827.00 309.30,827.00 C312.07,827.00 317.00,820.79 317.00,817.30 C317.00,815.86 317.85,815.01 319.75,814.54 C323.07,813.72 327.50,809.12 328.39,805.58 C328.91,803.50 329.64,803.00 332.13,803.00 C335.61,803.00 340.72,798.21 343.50,792.35 C344.38,790.51 345.54,789.00 346.08,789.00 C347.63,789.00 354.00,782.23 354.00,780.58 C354.00,779.02 357.45,775.25 360.55,773.43 C361.55,772.85 362.85,771.50 363.43,770.43 C366.60,764.67 369.07,762.29 373.15,761.07 C375.53,760.36 378.37,759.15 379.46,758.39 C380.55,757.62 382.41,757.00 383.60,757.00 C385.66,757.00 394.51,752.60 395.43,751.12 C396.07,750.08 386.00,750.93 383.81,752.10 C381.89,753.13 380.00,752.56 380.00,750.97 C380.00,750.46 381.33,749.37 382.95,748.53 C384.57,747.69 387.12,745.86 388.63,744.47 C390.13,743.07 393.30,741.08 395.66,740.03 C401.08,737.63 406.46,733.40 415.54,724.37 C419.53,720.39 424.32,716.65 426.35,715.92 C428.25,715.23 429.28,714.90 429.65,714.21 C430.07,713.43 429.63,712.18 428.65,709.42 C428.59,709.26 428.54,709.10 428.48,708.93 C427.12,705.08 427.12,704.46 428.47,703.10 C429.73,701.84 430.54,701.79 433.33,702.80 C437.25,704.22 443.00,702.75 443.00,700.33 C443.00,698.54 440.48,695.85 439.62,696.71 C439.28,697.05 439.00,696.38 439.00,695.23 C439.00,694.07 438.55,692.84 438.00,692.50 C437.45,692.16 437.00,690.79 437.00,689.45 C437.00,687.28 437.40,687.03 440.75,687.16 C442.81,687.24 446.08,686.49 448.00,685.49 L 451.50 683.67 L 448.00 682.25 C446.08,681.47 443.53,679.72 442.34,678.36 C440.51,676.28 440.32,675.38 441.14,672.69 C441.67,670.94 442.13,667.92 442.15,666.00 C442.19,662.90 443.71,659.02 446.35,655.27 C446.98,654.37 448.69,655.34 452.61,658.84 C470.21,674.52 487.86,672.75 506.64,653.42 C518.79,640.90 529.66,622.92 544.19,591.27 C549.69,579.30 554.60,569.07 555.10,568.55 C555.59,568.03 556.00,567.03 556.00,566.33 C556.00,565.63 557.10,562.68 558.44,559.78 C562.89,550.15 566.20,541.65 571.19,527.02 C576.15,512.48 577.86,508.59 576.51,514.88 C576.05,517.03 576.15,518.03 576.78,517.64 C577.78,517.02 579.41,520.28 580.57,525.25 C580.93,526.76 581.85,528.00 582.63,528.00 C584.97,528.00 586.23,522.93 585.73,515.50 C585.14,506.68 585.56,505.29 588.10,507.59 C589.15,508.54 590.00,509.88 590.00,510.57 C590.00,511.26 590.79,511.67 591.75,511.49 C592.71,511.30 593.84,511.12 594.25,511.08 C594.66,511.03 595.00,510.31 595.00,509.47 C595.00,508.63 595.79,507.65 596.75,507.29 C597.71,506.94 599.86,505.62 601.53,504.38 C603.83,502.64 605.38,502.24 608.03,502.66 C609.94,502.97 612.15,503.33 612.95,503.45 C613.74,503.57 614.57,504.20 614.78,504.84 C614.99,505.48 615.66,506.00 616.27,506.00 C616.88,506.00 616.25,504.76 614.87,503.25 C613.49,501.74 611.62,499.29 610.70,497.81 C609.14,495.29 609.14,495.09 610.77,494.53 C612.45,493.95 617.15,488.13 619.83,483.29 C621.87,479.61 625.31,478.41 628.13,480.38 C631.23,482.55 631.57,482.46 632.94,479.15 C633.58,477.59 635.55,475.60 637.31,474.73 L 640.50 473.16 L 637.25 472.45 C634.72,471.91 634.00,471.24 634.00,469.44 C634.00,463.37 638.28,459.33 641.70,462.17 C643.49,463.65 643.49,463.65 645.52,461.62 C646.31,460.83 647.41,460.03 647.95,459.84 C648.49,459.65 649.49,456.12 650.17,452.00 C651.15,446.07 651.99,443.92 654.20,441.74 C655.74,440.22 657.00,438.55 657.00,438.03 C657.00,436.28 660.88,434.96 666.97,434.65 C670.29,434.47 673.29,434.04 673.64,433.69 C674.53,432.80 672.06,430.00 670.38,430.00 C669.62,430.00 669.00,429.55 669.00,429.00 C669.00,428.45 668.23,428.00 667.30,428.00 C664.65,428.00 667.01,426.48 671.75,425.13 C674.09,424.46 676.00,423.56 676.00,423.12 C676.00,422.68 674.14,421.71 671.86,420.96 L 667.73 419.59 L 671.11 416.76 C673.94,414.40 674.25,413.77 673.00,412.93 C671.55,411.96 667.98,412.20 663.15,413.60 C659.50,414.66 660.76,411.04 664.73,409.09 C668.68,407.14 669.17,404.54 665.44,405.26 C662.72,405.78 660.00,403.86 660.00,401.43 C660.00,400.64 659.46,400.00 658.80,400.00 C655.57,400.00 660.31,398.01 667.50,396.35 C673.63,394.93 679.48,394.50 692.50,394.51 C711.73,394.53 718.19,395.87 733.80,403.08 C762.31,416.26 782.07,439.39 791.74,470.93 C794.17,478.85 794.37,480.90 794.39,498.00 C794.42,515.38 794.25,517.04 791.66,525.50 C780.14,563.12 752.57,589.89 715.28,599.66 C707.10,601.80 703.21,602.23 691.50,602.27 C679.46,602.31 676.07,601.95 667.32,599.66 L 666.50 599.45 C659.99,597.74 656.35,596.79 652.85,597.17 C648.26,597.67 643.92,600.47 633.68,606.87 C628.08,610.38 620.58,615.06 617.00,617.28 C613.42,619.49 608.14,622.82 605.25,624.66 C602.36,626.51 600.00,627.54 600.00,626.95 C600.00,625.95 601.87,618.34 609.94,586.50 C611.62,579.90 612.99,573.31 612.99,571.85 C613.00,570.14 610.56,565.89 606.13,559.85 C598.97,550.11 594.95,542.84 590.90,532.25 C589.59,528.81 588.12,526.13 587.64,526.29 C586.68,526.61 580.23,547.49 579.39,553.00 C578.93,556.01 579.60,557.59 584.18,564.36 C587.11,568.69 589.91,572.78 590.40,573.47 C591.18,574.54 582.97,608.52 574.09,641.00 C571.30,651.18 571.38,655.47 574.41,658.50 C580.00,664.09 582.35,663.35 606.00,648.61 C613.42,643.98 625.26,636.66 632.30,632.35 C639.34,628.03 646.99,623.30 649.30,621.83 C654.22,618.70 656.04,618.51 663.34,620.42 C685.52,626.19 714.50,623.85 737.14,614.44 C772.00,599.96 798.41,571.47 810.08,535.74 C822.81,496.81 814.55,452.80 788.38,420.00 C772.00,399.47 749.19,384.21 724.61,377.34 C719.06,375.79 715.37,374.36 716.40,374.16 C717.81,373.89 717.96,373.59 716.99,372.99 C715.93,372.34 715.99,371.53 717.30,368.79 C719.14,364.90 721.47,363.47 728.41,361.98 C731.11,361.40 733.75,360.66 734.27,360.33 C735.67,359.47 732.91,358.03 729.81,358.02 C728.33,358.01 726.80,357.48 726.40,356.84 C725.48,355.35 732.32,349.00 734.84,349.00 C735.87,349.00 738.00,347.81 739.57,346.35 C741.14,344.89 743.57,343.65 744.97,343.60 C746.88,343.52 747.58,342.89 747.83,341.00 C748.02,339.62 748.58,338.07 749.08,337.55 C749.59,337.03 750.00,335.53 750.00,334.23 C750.00,330.67 753.03,331.78 755.55,336.27 C757.61,339.95 757.67,339.98 758.77,337.76 C759.38,336.52 760.11,332.58 760.39,329.00 C761.22,318.20 761.95,315.04 764.54,310.93 C766.34,308.09 767.71,307.00 769.49,307.00 C771.28,307.00 772.13,306.32 772.58,304.54 C772.92,303.19 773.83,301.56 774.60,300.92 C775.37,300.28 776.00,298.75 776.00,297.52 C776.00,295.21 780.12,290.00 781.94,290.00 C782.51,290.00 784.17,288.09 785.63,285.75 C788.66,280.88 789.38,279.98 794.70,274.50 C796.83,272.30 799.58,268.86 800.81,266.85 C802.71,263.74 804.89,261.98 807.00,261.84 C809.55,261.66 811.00,259.52 811.00,255.91 C811.00,253.48 811.40,252.13 812.00,252.50 C812.55,252.84 813.00,252.43 813.00,251.59 C813.00,249.78 816.61,247.64 818.46,248.35 C820.17,249.00 824.22,246.15 823.72,244.66 C823.51,244.02 822.70,243.50 821.93,243.50 C819.45,243.50 819.67,240.07 822.22,239.11 C824.74,238.15 826.73,236.12 828.54,232.64 C829.16,231.46 830.17,230.61 830.80,230.74 C831.42,230.87 831.68,230.32 831.37,229.53 C831.02,228.61 832.04,227.36 834.16,226.10 C839.17,223.13 839.83,222.35 841.02,217.94 C841.71,215.35 842.87,213.61 844.23,213.11 C845.42,212.67 848.00,209.29 850.11,205.41 C854.69,197.00 856.06,195.96 859.76,198.04 C861.27,198.88 862.50,200.04 862.50,200.60 C862.50,201.16 865.04,204.52 868.13,208.06 C879.54,221.10 890.63,249.98 894.08,275.63 C895.45,285.90 895.35,744.29 893.96,758.00 C892.58,771.69 892.00,775.54 889.96,784.51 C884.71,807.53 873.07,829.46 855.50,849.41 C852.20,853.16 849.61,856.63 849.75,857.11 C849.89,857.60 849.44,858.04 848.75,858.09 C848.06,858.14 845.25,860.78 842.50,863.96 C839.75,867.13 835.73,870.81 833.58,872.12 C831.42,873.43 828.04,875.51 826.08,876.74 C816.92,882.48 800.30,888.82 792.50,889.54 C790.85,889.69 783.42,891.08 776.00,892.62 ZM 482.52 649.56 C477.32,651.73 472.79,651.35 468.41,648.37 C466.28,646.93 463.96,645.01 463.25,644.12 C461.20,641.54 459.72,638.71 460.73,639.34 C461.67,639.91 468.83,635.59 470.27,633.58 C470.78,632.86 471.48,633.08 472.38,634.25 C473.65,635.91 473.87,635.89 476.36,633.93 C478.12,632.55 479.00,630.90 479.00,628.97 C479.00,625.27 480.86,620.93 483.32,618.90 C484.48,617.94 485.62,615.14 486.18,611.90 C487.06,606.73 487.62,604.08 488.04,603.00 C488.15,602.72 488.19,602.19 488.14,601.80 C488.08,601.42 489.94,601.82 492.27,602.69 C497.49,604.65 513.48,604.96 516.75,603.17 C519.57,601.62 519.55,601.97 516.61,607.78 C506.12,628.48 492.23,645.50 482.52,649.56 ZM 718.05 515.29 C722.46,517.55 724.25,517.96 727.47,517.42 C737.55,515.73 743.75,507.55 742.70,497.34 C741.70,487.67 735.37,482.00 725.58,482.00 C713.72,482.00 706.49,490.24 708.00,502.03 C708.84,508.55 711.35,511.86 718.05,515.29 ZM 657.76 516.61 C668.22,520.44 680.00,511.46 680.00,499.66 C680.00,493.36 677.60,488.45 672.83,485.00 C669.30,482.43 667.80,482.00 662.50,482.00 C655.40,482.00 651.10,484.24 647.27,489.92 C642.84,496.50 645.16,509.44 651.52,513.61 C652.89,514.51 655.70,515.86 657.76,516.61 ZM 527.42 573.82 C523.59,578.29 523.27,578.46 521.07,577.06 C518.82,575.64 521.27,568.65 524.54,567.16 C527.67,565.74 530.34,565.65 529.50,567.00 C529.16,567.55 529.36,568.00 529.94,568.00 C531.77,568.00 531.12,569.50 527.42,573.82 ZM 546.08 540.92 C545.64,541.79 545.02,543.17 544.71,544.00 C544.41,544.83 544.12,544.11 544.08,542.42 C544.03,540.36 544.48,539.33 545.45,539.33 C546.44,539.33 546.64,539.83 546.08,540.92 ZM 433.68 721.29 C433.98,721.78 434.67,721.73 435.23,721.17 C435.78,720.62 435.89,719.64 435.49,718.98 C434.93,718.07 434.56,718.10 433.94,719.10 C433.50,719.82 433.38,720.80 433.68,721.29 ZM 753.00 329.44 C753.00,330.30 752.55,331.00 752.00,331.00 C751.45,331.00 751.00,330.58 751.00,330.06 C751.00,329.54 751.45,328.84 752.00,328.50 C752.55,328.16 753.00,328.58 753.00,329.44 Z" fill="rgb(41,87,122)"/>
<path d="M 877.50 222.36 C874.51,216.63 871.34,211.72 868.13,208.06 C865.04,204.52 862.50,201.16 862.50,200.60 C862.50,200.04 861.27,198.88 859.76,198.04 C856.06,195.96 854.69,197.00 850.11,205.41 C848.00,209.29 845.42,212.67 844.23,213.11 C842.87,213.61 841.71,215.35 841.02,217.94 C839.83,222.35 839.17,223.13 834.16,226.10 C832.04,227.36 831.02,228.61 831.37,229.53 C831.68,230.32 831.42,230.87 830.80,230.74 C830.17,230.61 829.16,231.46 828.54,232.64 C826.73,236.12 824.74,238.15 822.22,239.11 C819.67,240.07 819.45,243.50 821.93,243.50 C822.70,243.50 823.51,244.02 823.72,244.66 C824.22,246.15 820.17,249.00 818.46,248.35 C816.61,247.64 813.00,249.78 813.00,251.59 C813.00,252.43 812.55,252.84 812.00,252.50 C811.40,252.13 811.00,253.48 811.00,255.91 C811.00,259.52 809.55,261.66 807.00,261.84 C804.89,261.98 802.71,263.74 800.81,266.85 C799.58,268.86 796.83,272.30 794.70,274.50 C789.38,279.98 788.66,280.88 785.63,285.75 C784.17,288.09 782.51,290.00 781.94,290.00 C780.12,290.00 776.00,295.21 776.00,297.52 C776.00,298.75 775.37,300.28 774.60,300.92 C773.83,301.56 772.92,303.19 772.58,304.54 C772.13,306.32 771.28,307.00 769.49,307.00 C767.71,307.00 766.34,308.09 764.54,310.93 C761.95,315.04 761.22,318.20 760.39,329.00 C760.11,332.58 759.38,336.52 758.77,337.76 C757.67,339.98 757.61,339.95 755.55,336.27 C753.03,331.78 750.00,330.67 750.00,334.23 C750.00,335.53 749.59,337.03 749.08,337.55 C748.58,338.07 748.02,339.62 747.83,341.00 C747.58,342.89 746.88,343.52 744.97,343.60 C743.57,343.65 741.14,344.89 739.57,346.35 C738.00,347.81 735.87,349.00 734.84,349.00 C732.32,349.00 725.48,355.35 726.40,356.84 C726.80,357.48 728.33,358.01 729.81,358.02 C732.91,358.03 735.67,359.47 734.27,360.33 C733.75,360.66 731.11,361.40 728.41,361.98 C721.47,363.47 719.14,364.90 717.30,368.79 C715.99,371.53 715.93,372.34 716.99,372.99 C717.96,373.59 717.81,373.89 716.40,374.16 C715.47,374.34 718.36,375.51 722.98,376.87 C713.05,374.25 702.80,373.07 690.97,373.03 C676.03,372.99 665.75,374.51 653.36,378.62 C635.70,384.46 621.74,392.53 607.34,405.20 C594.42,416.57 587.64,425.93 572.01,454.00 C552.98,488.17 541.96,501.37 525.62,509.55 C513.62,515.56 504.55,513.86 495.63,503.93 C487.98,495.42 481.89,482.05 471.97,452.00 C457.38,407.76 447.35,387.11 431.66,369.00 C429.52,366.52 430.80,367.65 434.52,371.50 C443.50,380.81 456.00,396.41 456.00,398.31 C456.00,401.17 457.21,403.00 459.11,403.00 C461.58,403.00 461.52,400.89 459.00,398.73 C457.71,397.62 457.00,395.78 457.00,393.51 C457.00,390.47 457.32,390.00 459.41,390.00 C461.28,390.00 462.31,388.99 464.00,385.50 C465.20,383.02 466.48,380.97 466.84,380.92 C467.20,380.88 468.29,380.70 469.25,380.51 C470.21,380.33 471.26,380.60 471.58,381.13 C472.23,382.18 479.89,374.16 479.96,372.35 C479.98,371.71 478.54,370.68 476.75,370.05 C473.89,369.04 473.71,368.78 475.28,367.88 C476.26,367.32 478.90,364.54 481.16,361.68 C483.41,358.83 485.42,356.61 485.63,356.75 C486.45,357.30 488.29,356.96 487.70,356.37 C487.35,356.02 487.73,354.80 488.54,353.65 C489.34,352.50 490.00,350.74 490.00,349.74 C490.00,346.38 493.90,340.21 496.85,338.91 C498.44,338.20 500.57,336.02 501.57,334.06 C503.82,329.65 507.96,325.00 509.62,325.00 C510.30,325.00 511.73,322.64 512.79,319.75 C513.94,316.62 515.59,314.10 516.86,313.51 C518.04,312.97 519.00,312.22 519.00,311.85 C519.00,311.48 520.35,311.39 522.00,311.65 C525.39,312.18 525.95,310.64 523.53,307.44 C521.82,305.17 521.51,300.00 523.08,300.00 C523.68,300.00 525.74,298.38 527.67,296.39 C529.60,294.40 532.38,292.45 533.84,292.04 C537.03,291.16 537.10,288.10 534.01,285.01 C530.79,281.79 531.78,279.88 537.00,279.25 C541.21,278.74 545.00,276.84 545.00,275.24 C545.00,273.41 549.06,265.07 549.90,265.17 C553.07,265.53 554.00,264.78 554.00,261.87 C554.00,258.03 556.59,253.71 561.88,248.72 C564.08,246.64 566.16,244.06 566.51,242.97 C566.85,241.89 568.20,240.74 569.51,240.41 C571.15,240.00 572.09,238.84 572.57,236.66 C572.95,234.92 574.02,232.53 574.95,231.35 C576.53,229.32 576.71,229.30 577.74,230.96 C578.35,231.93 579.83,232.98 581.03,233.30 C583.09,233.84 583.17,233.63 582.56,229.53 C582.05,226.13 582.35,224.48 583.95,221.85 C585.07,220.01 585.99,217.09 586.00,215.36 C586.00,212.86 586.50,212.09 588.46,211.60 C592.91,210.48 598.15,206.84 597.55,205.27 C596.97,203.77 602.28,197.72 604.95,196.85 C605.97,196.51 606.33,195.06 606.16,191.86 C605.96,187.94 606.24,187.21 608.37,186.24 C609.84,185.57 611.07,183.94 611.47,182.14 C612.09,179.30 615.84,176.80 619.84,176.57 C622.22,176.42 624.00,172.72 624.00,167.89 C624.00,162.59 625.42,161.38 628.38,164.14 C630.73,166.33 632.00,165.71 632.00,162.35 C632.00,160.79 633.15,158.81 635.00,157.19 C636.65,155.74 638.00,154.05 638.00,153.44 C638.00,152.82 639.12,151.81 640.50,151.18 C642.69,150.18 643.55,148.38 643.10,145.71 C643.03,145.27 644.56,144.25 646.50,143.44 C650.01,141.97 650.02,141.94 648.52,139.03 C647.68,137.42 647.00,135.49 647.00,134.73 C647.00,132.83 640.66,130.01 636.22,129.94 C634.17,129.91 630.70,129.51 628.50,129.06 C623.02,127.92 700.89,127.85 728.00,128.96 C751.11,129.91 761.09,131.53 779.00,137.21 C814.57,148.50 847.31,173.73 868.25,206.00 C871.57,211.11 874.67,216.62 877.50,222.36 ZM 705.53 895.45 C581.94,895.98 283.71,896.04 274.00,895.32 C234.45,892.38 223.14,890.45 207.63,883.99 C198.39,880.14 187.04,872.18 182.09,866.06 C180.12,863.62 179.06,861.96 179.75,862.37 C182.99,864.31 180.30,860.77 173.38,853.97 C160.82,841.65 149.20,825.10 142.67,810.25 C132.50,787.11 128.92,765.16 129.11,727.14 C129.23,703.51 130.32,703.84 131.72,727.92 C132.26,737.19 132.89,741.47 133.75,741.75 C134.63,742.04 135.00,740.79 135.00,737.52 C135.00,730.37 138.47,725.58 139.18,731.75 C139.37,733.39 140.11,734.50 141.00,734.50 C142.13,734.50 142.51,733.25 142.54,729.43 C142.59,724.23 144.44,721.06 148.23,719.70 C149.29,719.32 149.73,718.47 149.38,717.54 C148.67,715.71 149.00,715.66 152.68,717.09 C160.02,719.94 162.31,718.76 159.60,713.53 C158.36,711.13 158.33,710.19 159.43,707.59 C160.19,705.80 161.32,704.66 162.12,704.89 C167.61,706.42 167.85,706.33 168.64,702.35 C169.06,700.23 169.31,698.16 169.20,697.75 C169.09,697.34 169.51,697.00 170.14,697.00 C170.77,697.00 171.92,696.21 172.70,695.25 C173.74,693.98 174.27,693.84 174.65,694.75 C175.78,697.48 178.23,695.73 180.63,690.49 C182.02,687.47 184.02,684.53 185.08,683.96 C186.13,683.39 187.02,682.38 187.05,681.71 C187.07,681.05 187.74,679.15 188.54,677.50 L 189.98 674.50 L 189.69 678.25 C189.53,680.31 189.79,682.00 190.26,682.00 C190.73,682.00 190.84,682.44 190.51,682.99 C190.17,683.53 190.53,683.73 191.30,683.44 C192.08,683.14 195.09,678.18 198.00,672.41 C200.92,666.61 204.23,661.42 205.40,660.81 C206.55,660.20 207.73,659.39 208.00,659.01 C208.27,658.64 210.60,657.11 213.17,655.62 C216.19,653.86 218.20,651.86 218.87,649.94 C219.44,648.31 220.61,646.70 221.48,646.37 C222.34,646.04 224.19,643.82 225.59,641.44 C227.31,638.51 229.18,636.77 231.39,636.04 C233.18,635.44 235.65,633.62 236.86,631.98 C238.07,630.34 239.95,629.00 241.03,629.00 C242.60,629.00 243.00,628.32 243.00,625.66 C243.00,622.80 243.54,622.04 246.75,620.42 C253.17,617.17 253.85,616.29 253.27,611.99 L 252.75 608.11 L 256.94 608.53 C260.71,608.90 261.29,608.66 262.80,606.03 C264.28,603.44 265.19,603.03 270.74,602.44 C274.18,602.07 277.00,601.38 277.00,600.91 C277.00,599.55 271.37,597.00 268.30,596.97 C265.93,596.94 265.77,596.78 267.24,595.93 C268.42,595.24 269.61,595.26 270.99,595.99 C272.09,596.59 273.00,596.66 273.00,596.15 C273.00,594.84 276.45,594.11 278.16,595.07 C278.99,595.53 280.66,595.34 282.05,594.63 C283.71,593.78 285.73,593.65 288.28,594.20 C291.41,594.88 292.43,594.68 294.24,592.99 C295.45,591.87 296.98,591.16 297.65,591.42 C299.76,592.23 299.79,589.68 297.75,584.50 C295.97,579.97 294.80,576.79 290.99,566.00 C288.30,558.38 281.86,544.64 278.83,540.05 C277.58,538.16 277.10,536.94 277.76,537.35 C279.95,538.70 287.01,551.57 291.42,562.25 C297.58,577.15 302.64,586.38 307.80,592.12 C313.97,598.98 318.29,601.00 326.81,601.00 C332.79,601.00 334.22,600.63 337.60,598.17 C352.71,587.21 358.94,569.49 370.53,504.50 C376.93,468.62 381.12,454.06 384.65,455.42 C385.48,455.74 386.35,456.00 386.57,456.00 C387.84,456.00 395.27,473.14 397.87,482.06 C400.71,491.79 406.65,517.69 411.97,543.50 C415.17,559.04 422.77,592.11 425.19,601.00 C432.20,626.84 442.36,648.43 451.96,658.27 C448.49,655.24 446.94,654.42 446.35,655.27 C443.71,659.02 442.19,662.90 442.15,666.00 C442.13,667.92 441.67,670.94 441.14,672.69 C440.32,675.38 440.51,676.28 442.34,678.36 C443.53,679.72 446.08,681.47 448.00,682.25 L 451.50 683.67 L 448.00 685.49 C446.08,686.49 442.81,687.24 440.75,687.16 C437.40,687.03 437.00,687.28 437.00,689.45 C437.00,690.79 437.45,692.16 438.00,692.50 C438.55,692.84 439.00,694.07 439.00,695.23 C439.00,696.38 439.28,697.05 439.62,696.71 C440.48,695.85 443.00,698.54 443.00,700.33 C443.00,702.75 437.25,704.22 433.33,702.80 C430.54,701.79 429.73,701.84 428.47,703.10 C427.12,704.46 427.12,705.08 428.48,708.93 C428.54,709.10 428.59,709.26 428.65,709.42 C429.63,712.18 430.07,713.43 429.65,714.21 C429.28,714.90 428.25,715.23 426.35,715.92 C424.32,716.65 419.53,720.39 415.54,724.37 C406.46,733.40 401.08,737.63 395.66,740.03 C393.30,741.08 390.13,743.07 388.63,744.47 C387.12,745.86 384.57,747.69 382.95,748.53 C381.33,749.37 380.00,750.46 380.00,750.97 C380.00,752.56 381.89,753.13 383.81,752.10 C386.00,750.93 396.07,750.08 395.43,751.12 C394.51,752.60 385.66,757.00 383.60,757.00 C382.41,757.00 380.55,757.62 379.46,758.39 C378.37,759.15 375.53,760.36 373.15,761.07 C369.07,762.29 366.60,764.67 363.43,770.43 C362.85,771.50 361.55,772.85 360.55,773.43 C357.45,775.25 354.00,779.02 354.00,780.58 C354.00,782.23 347.63,789.00 346.08,789.00 C345.54,789.00 344.38,790.51 343.50,792.35 C340.72,798.21 335.61,803.00 332.13,803.00 C329.64,803.00 328.91,803.50 328.39,805.58 C327.50,809.12 323.07,813.72 319.75,814.54 C317.85,815.01 317.00,815.86 317.00,817.30 C317.00,820.79 312.07,827.00 309.30,827.00 C305.77,827.00 303.24,828.64 301.45,832.10 C299.24,836.37 300.78,838.07 305.78,836.91 C310.81,835.74 315.00,835.78 315.00,837.00 C315.00,837.55 314.21,838.79 313.25,839.75 C312.29,840.71 311.50,842.17 311.50,843.00 C311.50,844.06 310.20,844.59 307.10,844.81 C304.68,844.99 302.43,844.76 302.10,844.31 C300.89,842.67 297.29,841.20 296.16,841.90 C295.31,842.43 295.39,843.13 296.47,844.56 C299.86,849.04 297.16,852.46 292.60,849.47 C290.09,847.83 290.01,847.85 289.02,850.46 C288.46,851.93 288.00,853.55 288.00,854.07 C288.00,854.58 286.19,855.00 283.97,855.00 C279.86,855.00 279.68,855.18 278.55,860.29 C278.22,861.83 277.17,863.38 276.22,863.74 C274.04,864.56 272.00,866.56 272.00,867.87 C272.00,868.43 270.67,869.67 269.04,870.63 C264.35,873.40 262.53,880.00 266.45,880.00 C268.58,880.00 268.94,882.44 267.15,884.75 C266.15,886.03 264.11,887.00 262.00,887.19 C257.33,887.60 257.56,889.21 262.42,890.23 C264.58,890.67 266.83,891.43 267.42,891.91 C268.01,892.38 270.52,893.11 273.00,893.51 C280.31,894.71 423.77,895.59 599.00,895.50 ZM 776.00 892.62 C783.42,891.08 790.85,889.69 792.50,889.54 C800.30,888.82 816.92,882.48 826.08,876.74 C828.04,875.51 831.42,873.43 833.58,872.12 C835.73,870.81 839.75,867.13 842.50,863.96 C845.25,860.78 848.06,858.14 848.75,858.09 C849.44,858.04 849.89,857.60 849.75,857.11 C849.61,856.63 852.20,853.16 855.50,849.41 C873.07,829.46 884.71,807.53 889.96,784.51 C892.00,775.54 892.58,771.69 893.96,758.00 C895.32,744.62 895.45,307.44 894.17,277.11 C894.28,278.08 894.37,279.05 894.44,280.00 C895.31,290.73 895.89,367.39 896.15,505.50 C896.27,571.50 896.66,621.45 897.00,616.50 C897.34,611.55 897.71,608.40 897.83,609.50 C897.98,610.96 898.25,611.15 898.85,610.20 C899.95,608.47 900.96,609.77 904.52,617.50 C906.04,620.80 907.84,624.17 908.51,625.00 C909.19,625.83 910.53,628.97 911.49,632.00 C912.46,635.03 914.02,638.85 914.96,640.50 C915.90,642.15 917.47,646.42 918.44,650.00 C919.40,653.58 921.04,658.53 922.07,661.00 C927.01,672.82 927.50,676.95 927.50,706.50 C927.50,725.14 927.10,735.84 926.32,738.50 C925.67,740.70 924.58,746.55 923.90,751.50 C923.22,756.45 922.06,762.24 921.33,764.38 C920.60,766.51 920.00,769.66 920.00,771.38 C919.99,774.65 917.80,782.87 911.17,804.50 C905.77,822.08 897.62,837.75 887.10,850.79 C877.85,862.25 875.44,864.41 864.26,871.24 C844.40,883.37 813.20,890.85 767.84,894.31 ZM 515.78 583.58 C509.48,586.82 500.07,586.95 495.00,583.87 C484.09,577.24 476.21,566.19 468.70,547.00 C464.04,535.08 457.09,508.00 453.99,489.63 C449.03,460.30 444.75,435.96 443.50,429.99 C442.65,425.98 442.15,422.52 442.37,422.30 C442.84,421.83 443.32,423.17 454.55,456.13 C464.20,484.45 469.14,496.34 475.50,506.55 C480.73,514.95 489.93,523.88 497.34,527.76 C501.99,530.20 503.54,530.46 513.09,530.48 L 523.69 530.50 L 533.23 525.76 C540.14,522.33 544.86,519.07 550.38,513.92 C555.06,509.54 558.00,507.42 558.00,508.40 C558.00,509.28 557.55,510.00 557.00,510.00 C556.45,510.00 556.00,511.10 556.00,512.44 C556.00,517.07 546.81,542.47 540.86,554.29 C534.20,567.52 524.11,579.31 515.78,583.58 ZM 668.30 396.17 C668.03,396.23 667.77,396.29 667.50,396.35 C660.31,398.01 655.57,400.00 658.80,400.00 C659.46,400.00 660.00,400.64 660.00,401.43 C660.00,403.86 662.72,405.78 665.44,405.26 C669.17,404.54 668.68,407.14 664.73,409.09 C660.76,411.04 659.50,414.66 663.15,413.60 C667.98,412.20 671.55,411.96 673.00,412.93 C674.25,413.77 673.94,414.40 671.11,416.76 L 667.73 419.59 L 671.86 420.96 C674.14,421.71 676.00,422.68 676.00,423.12 C676.00,423.56 674.09,424.46 671.75,425.13 C667.01,426.48 664.65,428.00 667.30,428.00 C668.23,428.00 669.00,428.45 669.00,429.00 C669.00,429.55 669.62,430.00 670.38,430.00 C672.06,430.00 674.53,432.80 673.64,433.69 C673.29,434.04 670.29,434.47 666.97,434.65 C660.88,434.96 657.00,436.28 657.00,438.03 C657.00,438.55 655.74,440.22 654.20,441.74 C651.99,443.92 651.15,446.07 650.17,452.00 C649.49,456.12 648.49,459.65 647.95,459.84 C647.41,460.03 646.31,460.83 645.52,461.62 C643.49,463.65 643.49,463.65 641.70,462.17 C638.28,459.33 634.00,463.37 634.00,469.44 C634.00,471.24 634.72,471.91 637.25,472.45 L 640.50 473.16 L 637.31 474.73 C635.55,475.60 633.58,477.59 632.94,479.15 C631.57,482.46 631.23,482.55 628.13,480.38 C625.31,478.41 621.87,479.61 619.83,483.29 C617.15,488.13 612.45,493.95 610.77,494.53 C609.14,495.09 609.14,495.29 610.70,497.81 C611.62,499.29 613.49,501.74 614.87,503.25 C616.25,504.76 616.88,506.00 616.27,506.00 C615.66,506.00 614.99,505.48 614.78,504.84 C614.57,504.20 613.74,503.57 612.95,503.45 C612.15,503.33 609.94,502.97 608.03,502.66 C605.38,502.24 603.83,502.64 601.53,504.38 C599.86,505.62 597.71,506.94 596.75,507.29 C595.79,507.65 595.00,508.63 595.00,509.47 C595.00,510.31 594.66,511.03 594.25,511.08 C593.84,511.12 592.71,511.30 591.75,511.49 C590.79,511.67 590.00,511.26 590.00,510.57 C590.00,509.88 589.15,508.54 588.10,507.59 C585.56,505.29 585.14,506.68 585.73,515.50 C586.23,522.93 584.97,528.00 582.63,528.00 C581.85,528.00 580.93,526.76 580.57,525.25 C579.41,520.28 577.78,517.02 576.78,517.64 C576.15,518.03 576.05,517.03 576.51,514.88 C577.73,509.20 576.46,511.82 572.55,523.08 C574.05,518.46 575.00,515.02 575.00,513.86 C575.00,512.92 575.70,511.44 576.56,510.58 C577.42,509.72 577.85,508.56 577.50,508.01 C577.16,507.45 577.25,507.00 577.69,507.00 C578.14,507.00 578.54,505.33 578.58,503.30 C578.63,501.27 579.19,499.44 579.84,499.22 C580.48,499.01 580.76,498.42 580.45,497.91 C580.14,497.41 580.30,497.00 580.82,497.00 C581.33,497.00 581.75,495.91 581.75,494.58 C581.75,487.97 596.41,449.70 600.63,445.29 C601.66,444.21 602.63,442.75 602.80,442.03 C603.87,437.31 624.20,415.00 627.43,415.00 C628.29,415.00 629.00,414.57 629.00,414.04 C629.00,412.63 641.59,405.40 650.63,401.63 C656.92,399.00 662.31,397.27 668.30,396.17 ZM 494.47 603.31 C493.62,603.12 492.87,602.92 492.27,602.69 C489.94,601.82 488.08,601.42 488.14,601.80 C488.19,602.19 488.15,602.72 488.04,603.00 C487.62,604.08 487.06,606.73 486.18,611.90 C485.62,615.14 484.48,617.94 483.32,618.90 C480.86,620.93 479.00,625.27 479.00,628.97 C479.00,630.90 478.12,632.55 476.36,633.93 C473.87,635.89 473.65,635.91 472.38,634.25 C471.48,633.08 470.78,632.86 470.27,633.58 C468.83,635.59 461.67,639.91 460.73,639.34 C459.98,638.87 460.60,640.31 461.81,642.14 C451.94,629.78 442.97,604.15 434.49,564.50 C433.08,557.90 430.15,544.17 427.98,534.00 C414.52,470.97 409.48,455.61 398.53,444.31 C395.70,441.39 393.56,439.00 393.77,439.00 C395.31,439.00 403.02,444.50 403.48,445.92 C404.05,447.74 415.27,457.00 416.89,457.00 C418.12,457.00 419.00,454.42 419.00,450.83 C419.00,448.92 419.82,447.16 421.24,446.00 C423.30,444.34 423.49,443.36 423.46,434.34 C423.44,428.93 422.93,422.32 422.32,419.66 C421.72,417.00 421.60,415.20 422.06,415.66 C423.07,416.68 426.86,435.45 431.52,462.50 C438.79,504.72 439.17,506.62 444.15,526.50 C454.20,566.60 468.44,590.43 488.36,600.49 C491.02,601.83 492.84,602.72 494.47,603.31 ZM 331.26 580.25 C328.12,583.53 325.21,583.74 321.63,580.93 C317.96,578.04 315.13,572.85 307.58,555.20 C300.44,538.52 294.37,528.22 287.15,520.56 C283.09,516.25 282.98,516.03 286.27,518.79 C288.34,520.54 291.49,523.66 293.27,525.73 C295.04,527.81 297.04,529.95 297.71,530.50 C298.37,531.05 301.42,536.77 304.50,543.22 C307.57,549.66 310.48,555.18 310.96,555.48 C311.45,555.78 312.13,557.33 312.48,558.93 C312.84,560.53 313.71,562.06 314.43,562.34 C315.15,562.61 316.06,564.11 316.45,565.67 C316.84,567.23 317.85,569.27 318.69,570.20 C320.06,571.73 320.45,571.75 322.49,570.41 C324.52,569.09 324.82,569.10 325.38,570.54 C325.94,572.01 326.13,572.01 327.58,570.57 C328.44,569.70 329.98,568.55 330.99,568.01 C333.62,566.60 332.47,563.00 329.38,563.00 C326.51,563.00 326.38,561.98 328.87,558.91 C330.68,556.67 330.82,556.65 333.38,558.33 C335.98,560.04 336.03,560.02 337.11,557.28 C337.72,555.75 338.77,553.15 339.46,551.50 C340.82,548.22 342.37,541.73 343.95,532.66 C345.09,526.12 344.31,523.55 340.82,522.44 C334.76,520.52 326.72,512.01 324.57,505.23 C323.46,501.71 324.77,502.63 326.93,506.87 C328.02,508.99 330.11,512.17 331.58,513.92 C334.68,517.60 342.78,522.00 346.47,522.00 C349.59,522.00 349.62,522.78 347.06,535.14 C342.16,558.77 336.58,574.70 331.26,580.25 ZM 382.51 489.01 C383.32,490.32 385.22,489.84 385.77,488.19 C386.01,487.48 385.13,487.00 383.58,487.00 C383.50,487.00 383.42,487.00 383.35,487.00 C382.22,487.00 381.55,487.00 381.30,486.68 C380.93,486.22 381.37,485.11 382.45,482.41 L 382.61 482.02 C384.67,476.87 388.11,476.43 390.02,481.06 C391.70,485.10 393.79,483.40 392.19,479.31 C391.58,477.76 390.87,474.35 390.61,471.72 C389.99,465.44 387.07,459.50 384.60,459.50 C381.71,459.50 378.99,468.60 378.55,479.79 C378.21,488.41 378.32,489.03 380.01,488.50 C381.01,488.18 382.14,488.41 382.51,489.01 ZM 527.42 573.82 C531.12,569.50 531.77,568.00 529.94,568.00 C529.36,568.00 529.16,567.55 529.50,567.00 C530.34,565.65 527.67,565.74 524.54,567.16 C521.27,568.65 518.82,575.64 521.07,577.06 C523.27,578.46 523.59,578.29 527.42,573.82 ZM 350.82 499.18 C348.01,504.24 346.74,504.78 344.78,501.79 C340.96,495.94 336.30,485.00 337.63,485.00 C337.89,485.00 339.63,488.33 341.48,492.40 C345.10,500.32 345.96,501.33 348.35,500.42 C349.92,499.82 353.28,490.63 354.55,483.50 C355.27,479.44 356.91,475.49 356.97,477.69 C357.05,480.89 352.87,495.50 350.82,499.18 ZM 387.77 436.44 L 390.50 437.92 L 386.13 437.96 C382.09,438.00 381.81,437.84 382.37,435.75 C382.70,434.51 383.02,432.38 383.08,431.00 C383.17,428.77 383.28,428.85 384.11,431.73 C384.66,433.61 386.19,435.58 387.77,436.44 ZM 386.99 420.00 C386.32,423.02 385.36,426.17 384.84,427.00 C384.11,428.17 384.01,428.06 384.38,426.50 C384.64,425.40 385.43,421.12 386.13,417.00 C386.91,412.40 387.56,410.47 387.81,412.00 C388.03,413.38 387.66,416.98 386.99,420.00 ZM 416.50 465.00 C416.84,465.55 417.54,466.00 418.06,466.00 C419.28,466.00 419.28,463.29 418.07,462.54 C416.88,461.81 415.68,463.68 416.50,465.00 ZM 362.00 450.33 C362.00,452.35 361.56,454.00 361.02,454.00 C360.46,454.00 360.31,452.62 360.67,450.75 C361.54,446.19 362.00,446.05 362.00,450.33 ZM 546.08 540.92 C546.64,539.83 546.44,539.33 545.45,539.33 C544.48,539.33 544.03,540.36 544.08,542.42 C544.12,544.11 544.41,544.83 544.71,544.00 C545.02,543.17 545.64,541.79 546.08,540.92 ZM 433.68 721.29 C433.38,720.80 433.50,719.82 433.94,719.10 C434.56,718.10 434.93,718.07 435.49,718.98 C435.89,719.64 435.78,720.62 435.23,721.17 C434.67,721.73 433.98,721.78 433.68,721.29 ZM 803.98 551.05 C794.58,570.85 780.33,587.77 762.54,600.40 C780.26,587.70 794.62,570.55 803.98,551.05 ZM 463.00 398.44 C463.00,399.30 463.45,400.00 464.00,400.00 C464.55,400.00 465.00,399.58 465.00,399.06 C465.00,398.54 464.55,397.84 464.00,397.50 C463.45,397.16 463.00,397.58 463.00,398.44 ZM 753.00 329.44 C753.00,328.58 752.55,328.16 752.00,328.50 C751.45,328.84 751.00,329.54 751.00,330.06 C751.00,330.58 751.45,331.00 752.00,331.00 C752.55,331.00 753.00,330.30 753.00,329.44 ZM 815.75 491.29 C814.21,466.74 805.65,443.54 791.65,424.28 C806.11,444.09 814.35,467.53 815.75,491.29 ZM 569.01 533.34 C565.16,544.28 562.21,551.62 558.44,559.78 C561.55,553.06 565.66,542.61 569.01,533.34 ZM 699.36 623.18 C686.75,624.13 674.23,623.25 663.34,620.42 C673.92,623.17 686.65,624.09 699.36,623.18 ZM 731.84 379.62 C737.40,381.57 742.84,383.95 748.10,386.72 C746.91,386.10 745.71,385.50 744.50,384.92 C740.21,382.87 736.02,381.11 731.84,379.62 ZM 509.86 604.29 C513.19,604.09 515.82,603.68 516.75,603.17 C515.63,603.78 513.02,604.15 509.86,604.29 ZM 892.84 267.97 C892.07,263.83 891.12,259.65 890.02,255.51 C891.15,259.72 892.10,263.89 892.84,267.97 Z" fill="rgb(133,98,93)"/>
<path d="M 362.00 450.33 C362.00,446.05 361.54,446.19 360.67,450.75 C360.31,452.62 360.46,454.00 361.02,454.00 C361.18,454.00 361.32,453.86 361.45,453.62 C359.45,465.01 358.42,470.46 356.97,477.75 C356.97,477.73 356.97,477.71 356.97,477.69 C356.91,475.49 355.27,479.44 354.55,483.50 C353.28,490.63 349.92,499.82 348.35,500.42 C345.96,501.33 345.10,500.32 341.48,492.40 C339.63,488.33 337.89,485.00 337.63,485.00 C337.33,485.00 337.33,485.54 337.55,486.44 C336.67,484.06 335.81,481.56 335.01,479.00 C326.80,452.81 320.23,441.18 311.02,436.51 C302.29,432.08 294.78,433.47 286.59,441.03 C281.59,445.63 277.70,452.01 267.98,471.50 C262.71,482.06 260.28,485.74 255.00,491.10 C246.26,499.98 240.88,502.03 224.16,502.88 C212.10,503.49 211.77,503.56 209.31,506.42 C206.18,510.06 206.65,515.39 210.40,518.64 C212.59,520.55 214.55,520.86 228.28,521.51 C236.76,521.90 244.62,521.94 245.74,521.58 C246.86,521.23 249.73,521.41 252.13,522.00 C254.54,522.58 257.18,523.22 258.02,523.43 C262.82,524.59 272.41,530.67 276.30,534.99 C281.05,540.28 287.08,551.16 291.48,562.39 L 291.42 562.25 C287.01,551.57 279.95,538.70 277.76,537.35 C277.10,536.94 277.58,538.16 278.83,540.05 C281.86,544.64 288.30,558.38 290.99,566.00 C294.80,576.79 295.97,579.97 297.75,584.50 C299.79,589.68 299.76,592.23 297.65,591.42 C296.98,591.16 295.45,591.87 294.24,592.99 C292.43,594.68 291.41,594.88 288.28,594.20 C285.73,593.65 283.71,593.78 282.05,594.63 C280.66,595.34 278.99,595.53 278.16,595.07 C276.45,594.11 273.00,594.84 273.00,596.15 C273.00,596.66 272.09,596.59 270.99,595.99 C269.61,595.26 268.42,595.24 267.24,595.93 C265.77,596.78 265.93,596.94 268.30,596.97 C271.37,597.00 277.00,599.55 277.00,600.91 C277.00,601.38 274.18,602.07 270.74,602.44 C265.19,603.03 264.28,603.44 262.80,606.03 C261.29,608.66 260.71,608.90 256.94,608.53 L 252.75 608.11 L 253.27 611.99 C253.85,616.29 253.17,617.17 246.75,620.42 C243.54,622.04 243.00,622.80 243.00,625.66 C243.00,628.32 242.60,629.00 241.03,629.00 C239.95,629.00 238.07,630.34 236.86,631.98 C235.65,633.62 233.18,635.44 231.39,636.04 C229.18,636.77 227.31,638.51 225.59,641.44 C224.19,643.82 222.34,646.04 221.48,646.37 C220.61,646.70 219.44,648.31 218.87,649.94 C218.20,651.86 216.19,653.86 213.17,655.62 C210.60,657.11 208.27,658.64 208.00,659.01 C207.73,659.39 206.55,660.20 205.40,660.81 C204.23,661.42 200.92,666.61 198.00,672.41 C195.09,678.18 192.08,683.14 191.30,683.44 C190.53,683.73 190.17,683.53 190.51,682.99 C190.84,682.44 190.73,682.00 190.26,682.00 C189.79,682.00 189.53,680.31 189.69,678.25 L 189.98 674.50 L 188.54 677.50 C187.74,679.15 187.07,681.05 187.05,681.71 C187.02,682.38 186.13,683.39 185.08,683.96 C184.02,684.53 182.02,687.47 180.63,690.49 C178.23,695.73 175.78,697.48 174.65,694.75 C174.27,693.84 173.74,693.98 172.70,695.25 C171.92,696.21 170.77,697.00 170.14,697.00 C169.51,697.00 169.09,697.34 169.20,697.75 C169.31,698.16 169.06,700.23 168.64,702.35 C167.85,706.33 167.61,706.42 162.12,704.89 C161.32,704.66 160.19,705.80 159.43,707.59 C158.33,710.19 158.36,711.13 159.60,713.53 C162.31,718.76 160.02,719.94 152.68,717.09 C149.00,715.66 148.67,715.71 149.38,717.54 C149.73,718.47 149.29,719.32 148.23,719.70 C144.44,721.06 142.59,724.23 142.54,729.43 C142.51,733.25 142.13,734.50 141.00,734.50 C140.11,734.50 139.37,733.39 139.18,731.75 C138.47,725.58 135.00,730.37 135.00,737.52 C135.00,740.79 134.63,742.04 133.75,741.75 C132.89,741.47 132.26,737.19 131.72,727.92 C130.32,703.84 129.23,703.51 129.11,727.14 C129.11,727.69 129.11,728.24 129.11,728.78 C128.59,697.38 128.49,640.95 128.29,531.00 C127.89,303.16 128.17,283.09 132.01,264.43 C142.57,213.14 175.34,170.40 222.43,146.52 C232.14,141.60 250.14,135.18 260.49,132.96 C281.13,128.52 273.49,128.67 493.00,128.30 C562.52,128.18 612.93,128.13 649.94,128.24 C635.89,128.36 626.47,128.64 628.50,129.06 C630.70,129.51 634.17,129.91 636.22,129.94 C640.66,130.01 647.00,132.83 647.00,134.73 C647.00,135.49 647.68,137.42 648.52,139.03 C650.02,141.94 650.01,141.97 646.50,143.44 C644.56,144.25 643.03,145.27 643.10,145.71 C643.55,148.38 642.69,150.18 640.50,151.18 C639.12,151.81 638.00,152.82 638.00,153.44 C638.00,154.05 636.65,155.74 635.00,157.19 C633.15,158.81 632.00,160.79 632.00,162.35 C632.00,165.71 630.73,166.33 628.38,164.14 C625.42,161.38 624.00,162.59 624.00,167.89 C624.00,172.72 622.22,176.42 619.84,176.57 C615.84,176.80 612.09,179.30 611.47,182.14 C611.07,183.94 609.84,185.57 608.37,186.24 C606.24,187.21 605.96,187.94 606.16,191.86 C606.33,195.06 605.97,196.51 604.95,196.85 C602.28,197.72 596.97,203.77 597.55,205.27 C598.15,206.84 592.91,210.48 588.46,211.60 C586.50,212.09 586.00,212.86 586.00,215.36 C585.99,217.09 585.07,220.01 583.95,221.85 C582.35,224.48 582.05,226.13 582.56,229.53 C583.17,233.63 583.09,233.84 581.03,233.30 C579.83,232.98 578.35,231.93 577.74,230.96 C576.71,229.30 576.53,229.32 574.95,231.35 C574.02,232.53 572.95,234.92 572.57,236.66 C572.09,238.84 571.15,240.00 569.51,240.41 C568.20,240.74 566.85,241.89 566.51,242.97 C566.16,244.06 564.08,246.64 561.88,248.72 C556.59,253.71 554.00,258.03 554.00,261.87 C554.00,264.78 553.07,265.53 549.90,265.17 C549.06,265.07 545.00,273.41 545.00,275.24 C545.00,276.84 541.21,278.74 537.00,279.25 C531.78,279.88 530.79,281.79 534.01,285.01 C537.10,288.10 537.03,291.16 533.84,292.04 C532.38,292.45 529.60,294.40 527.67,296.39 C525.74,298.38 523.68,300.00 523.08,300.00 C521.51,300.00 521.82,305.17 523.53,307.44 C525.95,310.64 525.39,312.18 522.00,311.65 C520.35,311.39 519.00,311.48 519.00,311.85 C519.00,312.22 518.04,312.97 516.86,313.51 C515.59,314.10 513.94,316.62 512.79,319.75 C511.73,322.64 510.30,325.00 509.62,325.00 C507.96,325.00 503.82,329.65 501.57,334.06 C500.57,336.02 498.44,338.20 496.85,338.91 C493.90,340.21 490.00,346.38 490.00,349.74 C490.00,350.74 489.34,352.50 488.54,353.65 C487.73,354.80 487.35,356.02 487.70,356.37 C488.29,356.96 486.45,357.30 485.63,356.75 C485.42,356.61 483.41,358.83 481.16,361.68 C478.90,364.54 476.26,367.32 475.28,367.88 C473.71,368.78 473.89,369.04 476.75,370.05 C478.54,370.68 479.98,371.71 479.96,372.35 C479.89,374.16 472.23,382.18 471.58,381.13 C471.26,380.60 470.21,380.33 469.25,380.51 C468.29,380.70 467.20,380.88 466.84,380.92 C466.48,380.97 465.20,383.02 464.00,385.50 C462.31,388.99 461.28,390.00 459.41,390.00 C457.32,390.00 457.00,390.47 457.00,393.51 C457.00,395.78 457.71,397.62 459.00,398.73 C461.52,400.89 461.58,403.00 459.11,403.00 C457.21,403.00 456.00,401.17 456.00,398.31 C456.00,396.41 443.50,380.81 434.52,371.50 C430.80,367.65 429.52,366.52 431.66,369.00 C438.59,377.00 444.41,385.49 450.01,396.29 C446.59,389.76 443.06,384.08 439.15,378.62 C425.00,358.86 407.47,350.85 394.74,358.31 C381.60,366.01 372.87,387.99 365.05,433.00 C363.82,440.08 362.83,445.78 362.00,450.53 C362.00,450.46 362.00,450.40 362.00,450.33 ZM 330.17 512.08 C330.67,512.77 331.15,513.40 331.58,513.92 C331.80,514.18 332.05,514.44 332.31,514.71 C334.16,516.53 336.93,518.39 339.65,519.78 C336.90,518.38 334.11,516.51 332.31,514.71 C332.00,514.40 331.72,514.10 331.46,513.80 C331.05,513.31 330.62,512.74 330.17,512.08 C328.97,510.40 327.70,508.37 326.93,506.87 C324.77,502.63 323.46,501.71 324.57,505.23 C326.72,512.01 334.76,520.52 340.82,522.44 C344.31,523.55 345.09,526.12 343.95,532.66 C342.37,541.73 340.82,548.22 339.46,551.50 C338.77,553.15 337.72,555.75 337.11,557.28 C336.03,560.02 335.98,560.04 333.38,558.33 C330.82,556.65 330.68,556.67 328.87,558.91 C326.38,561.98 326.51,563.00 329.38,563.00 C332.47,563.00 333.62,566.60 330.99,568.01 C329.98,568.55 328.44,569.70 327.58,570.57 C326.13,572.01 325.94,572.01 325.38,570.54 C324.82,569.10 324.52,569.09 322.49,570.41 C320.45,571.75 320.06,571.73 318.69,570.20 C317.85,569.27 316.84,567.23 316.45,565.67 C316.06,564.11 315.15,562.61 314.43,562.34 C313.71,562.06 312.84,560.53 312.48,558.93 C312.13,557.33 311.45,555.78 310.96,555.48 C310.48,555.18 307.57,549.66 304.50,543.22 C301.42,536.77 298.37,531.05 297.71,530.50 C297.04,529.95 295.04,527.81 293.27,525.73 C291.49,523.66 288.34,520.54 286.27,518.79 C282.98,516.03 283.09,516.25 287.15,520.56 C294.37,528.22 300.44,538.52 307.58,555.20 C296.97,530.39 287.66,517.97 274.82,511.44 C271.15,509.58 267.86,507.59 267.51,507.02 C267.16,506.45 268.41,504.08 270.29,501.74 C274.71,496.26 280.77,485.73 288.22,470.60 C294.70,457.42 298.10,453.00 301.73,453.00 C306.85,453.00 309.69,458.37 317.56,482.99 C321.48,495.23 326.42,506.56 330.17,512.08 ZM 387.77 436.44 C386.19,435.58 384.66,433.61 384.11,431.73 C383.78,430.58 383.56,429.87 383.41,429.58 C384.99,421.44 387.37,409.87 387.71,409.00 C388.38,407.30 388.67,406.34 389.38,403.50 C392.98,389.12 394.83,384.48 399.27,378.75 C402.32,374.80 405.16,374.04 408.21,376.36 C410.52,378.12 417.00,391.82 417.01,394.97 C417.01,396.36 417.61,398.64 418.33,400.03 C420.48,404.14 424.21,421.16 429.53,451.13 C425.81,430.31 422.92,416.53 422.06,415.66 C421.60,415.20 421.72,417.00 422.32,419.66 C422.93,422.32 423.44,428.93 423.46,434.34 C423.49,443.36 423.30,444.34 421.24,446.00 C419.82,447.16 419.00,448.92 419.00,450.83 C419.00,454.42 418.12,457.00 416.89,457.00 C415.27,457.00 404.05,447.74 403.48,445.92 C403.02,444.50 395.31,439.00 393.77,439.00 C393.56,439.00 395.70,441.39 398.53,444.31 C401.90,447.78 404.70,451.64 407.36,457.14 C404.53,451.35 401.51,447.40 397.80,443.75 C392.26,438.30 391.69,438.00 386.97,438.00 C386.32,438.00 385.68,437.99 385.11,437.96 C385.42,437.97 385.76,437.96 386.13,437.96 L 390.50 437.92 ZM 382.51 489.01 C382.14,488.41 381.01,488.18 380.01,488.50 C378.32,489.03 378.21,488.41 378.55,479.79 C378.99,468.60 381.71,459.50 384.60,459.50 C387.07,459.50 389.99,465.44 390.61,471.72 C390.87,474.35 391.58,477.76 392.19,479.31 C393.79,483.40 391.70,485.10 390.02,481.06 C388.11,476.43 384.67,476.87 382.61,482.02 L 382.45 482.41 C381.37,485.11 380.93,486.22 381.30,486.68 C381.55,487.00 382.22,487.00 383.35,487.00 C383.42,487.00 383.50,487.00 383.58,487.00 C385.13,487.00 386.01,487.48 385.77,488.19 C385.22,489.84 383.32,490.32 382.51,489.01 ZM 386.99 420.00 C387.66,416.98 388.03,413.38 387.81,412.00 C387.56,410.47 386.91,412.40 386.13,417.00 C385.43,421.12 384.64,425.40 384.38,426.50 C384.01,428.06 384.11,428.17 384.84,427.00 C385.36,426.17 386.32,423.02 386.99,420.00 ZM 416.50 465.00 C415.68,463.68 416.88,461.81 418.07,462.54 C419.28,463.29 419.28,466.00 418.06,466.00 C417.54,466.00 416.84,465.55 416.50,465.00 ZM 350.82 499.18 C351.86,497.31 353.45,492.62 354.75,488.04 C351.99,499.31 349.13,504.71 346.55,503.55 C347.73,503.95 348.92,502.59 350.82,499.18 ZM 463.00 398.44 C463.00,397.58 463.45,397.16 464.00,397.50 C464.55,397.84 465.00,398.54 465.00,399.06 C465.00,399.58 464.55,400.00 464.00,400.00 C463.45,400.00 463.00,399.30 463.00,398.44 ZM 892.84 267.97 C892.10,263.89 891.15,259.72 890.02,255.51 C888.62,250.23 886.99,245.01 885.18,240.02 C889.15,250.61 892.00,261.39 893.53,271.94 C893.32,270.62 893.09,269.30 892.84,267.97 ZM 797.55 144.47 C810.25,150.29 821.83,157.62 833.06,166.88 C822.12,157.92 810.13,150.34 797.55,144.47 ZM 390.74 463.46 C393.21,468.25 395.74,474.74 397.87,482.06 C396.39,476.97 393.33,469.20 390.74,463.46 ZM 129.98 756.82 C130.59,764.98 131.54,772.33 132.89,779.21 C132.77,778.64 132.66,778.07 132.56,777.50 C131.38,771.16 130.56,766.58 129.98,756.82 ZM 151.72 827.00 C157.86,836.68 165.43,846.17 173.38,853.97 C165.01,845.76 157.76,836.72 151.72,827.00 ZM 296.70 574.20 C300.36,581.60 304.37,588.21 307.52,591.81 C304.01,587.81 300.52,582.17 296.70,574.20 ZM 384.94 455.53 C384.85,455.49 384.75,455.46 384.65,455.42 C382.97,454.78 381.15,457.72 379.00,464.84 C379.94,461.69 380.80,459.36 381.59,457.83 C382.39,456.27 383.23,455.00 383.44,455.00 C383.91,455.00 384.41,455.18 384.94,455.53 ZM 382.83 437.78 C382.31,437.70 382.00,437.61 382.00,437.51 C382.00,437.14 382.43,434.75 383.05,431.49 C382.95,432.85 382.66,434.65 382.37,435.75 C382.04,436.97 382.00,437.53 382.83,437.78 ZM 842.01 174.71 C842.63,175.29 843.24,175.87 843.86,176.45 C847.99,180.38 851.94,184.62 855.69,189.11 C851.42,184.06 846.84,179.25 842.01,174.71 ZM 481.44 668.94 C489.66,667.41 498.08,662.23 506.63,653.42 C498.03,662.28 489.67,667.45 481.44,668.94 ZM 751.99 130.80 C754.72,131.14 757.01,131.53 759.13,131.96 C756.80,131.51 754.44,131.13 751.99,130.80 ZM 461.80 665.44 C463.36,666.27 464.92,666.99 466.46,667.57 C464.90,666.99 463.35,666.28 461.80,665.44 ZM 894.17 277.04 C894.27,278.03 894.36,279.02 894.44,280.00 C894.37,279.05 894.28,278.08 894.17,277.11 Z" fill="rgb(225,101,54)"/>
<path d="M 0.00 512.00 L 0.00 0.00 L 512.00 0.00 L 1024.00 0.00 L 1024.00 512.00 L 1024.00 1024.00 L 512.00 1024.00 L 0.00 1024.00 L 0.00 512.00 ZM 758.00 894.99 C808.73,891.88 842.99,884.23 864.26,871.24 C875.44,864.41 877.85,862.25 887.10,850.79 C897.62,837.75 905.77,822.08 911.17,804.50 C917.80,782.87 919.99,774.65 920.00,771.38 C920.00,769.66 920.60,766.51 921.33,764.38 C922.06,762.24 923.22,756.45 923.90,751.50 C924.58,746.55 925.67,740.70 926.32,738.50 C927.10,735.84 927.50,725.14 927.50,706.50 C927.50,676.95 927.01,672.82 922.07,661.00 C921.04,658.53 919.40,653.58 918.44,650.00 C917.47,646.42 915.90,642.15 914.96,640.50 C914.02,638.85 912.46,635.03 911.49,632.00 C910.53,628.97 909.19,625.83 908.51,625.00 C907.84,624.17 906.04,620.80 904.52,617.50 C900.96,609.77 899.95,608.47 898.85,610.20 C898.25,611.15 897.98,610.96 897.83,609.50 C897.71,608.40 897.34,611.55 897.00,616.50 C896.66,621.45 896.27,571.50 896.15,505.50 C895.89,367.39 895.31,290.73 894.44,280.00 C891.51,243.55 871.63,202.86 843.86,176.45 C819.58,153.37 794.78,140.13 761.50,132.47 C743.22,128.27 719.94,127.91 493.00,128.30 C273.49,128.67 281.13,128.52 260.49,132.96 C250.14,135.18 232.14,141.60 222.43,146.52 C175.34,170.40 142.57,213.14 132.01,264.43 C128.17,283.09 127.89,303.16 128.29,531.00 C128.69,754.82 128.72,756.84 132.56,777.50 C137.98,806.69 152.04,833.03 173.38,853.97 C180.30,860.77 182.99,864.31 179.75,862.37 C179.06,861.96 180.12,863.62 182.09,866.06 C187.04,872.18 198.39,880.14 207.63,883.99 C223.14,890.45 234.45,892.38 274.00,895.32 C286.05,896.21 743.05,895.90 758.00,894.99 ZM 471.11 668.92 C465.94,667.90 459.98,664.94 454.73,660.78 C444.36,652.57 432.88,629.34 425.19,601.00 C422.77,592.11 415.17,559.04 411.97,543.50 C406.65,517.69 400.71,491.79 397.87,482.06 C393.39,466.68 387.16,455.00 383.44,455.00 C383.23,455.00 382.39,456.27 381.59,457.83 C378.80,463.23 375.14,478.65 370.53,504.50 C358.94,569.49 352.71,587.21 337.60,598.17 C334.22,600.63 332.79,601.00 326.81,601.00 C318.27,601.00 313.97,598.98 307.74,592.06 C302.97,586.75 296.11,574.24 291.52,562.50 C287.12,551.23 281.07,540.29 276.30,534.99 C272.41,530.67 262.82,524.59 258.02,523.43 C257.18,523.22 254.54,522.58 252.13,522.00 C249.73,521.41 246.86,521.23 245.74,521.58 C244.62,521.94 236.76,521.90 228.28,521.51 C214.55,520.86 212.59,520.55 210.40,518.64 C206.65,515.39 206.18,510.06 209.31,506.42 C211.77,503.56 212.10,503.49 224.16,502.88 C240.88,502.03 246.26,499.98 255.00,491.10 C260.28,485.74 262.71,482.06 267.98,471.50 C277.70,452.01 281.59,445.63 286.59,441.03 C294.78,433.47 302.29,432.08 311.02,436.51 C320.23,441.18 326.80,452.81 335.01,479.00 C338.18,489.13 342.24,498.37 345.31,502.46 C348.69,506.96 352.67,499.16 356.36,480.80 C358.91,468.11 359.88,462.81 365.05,433.00 C372.87,387.99 381.60,366.01 394.74,358.31 C407.47,350.85 425.00,358.86 439.15,378.62 C451.05,395.23 459.41,413.91 471.97,452.00 C481.89,482.05 487.98,495.42 495.63,503.93 C504.55,513.86 513.62,515.56 525.62,509.55 C541.96,501.37 552.98,488.17 572.01,454.00 C587.64,425.93 594.42,416.57 607.34,405.20 C621.74,392.53 635.70,384.46 653.36,378.62 C665.75,374.51 676.03,372.99 690.97,373.03 C711.36,373.09 727.07,376.58 744.50,384.92 C788.10,405.79 816.02,450.46 816.00,499.32 C815.97,554.75 775.39,606.16 720.90,619.80 C702.03,624.53 680.02,624.76 663.34,620.42 C656.04,618.51 654.22,618.70 649.30,621.83 C646.99,623.30 639.34,628.03 632.30,632.35 C625.26,636.66 613.42,643.98 606.00,648.61 C582.35,663.35 580.00,664.09 574.41,658.50 C571.38,655.47 571.30,651.18 574.09,641.00 C582.97,608.52 591.18,574.54 590.40,573.47 C589.91,572.78 587.11,568.69 584.18,564.36 C579.60,557.59 578.93,556.01 579.39,553.00 C580.23,547.49 586.68,526.61 587.64,526.29 C588.12,526.13 589.59,528.81 590.90,532.25 C594.95,542.84 598.97,550.11 606.13,559.85 C610.56,565.89 613.00,570.14 612.99,571.85 C612.99,573.31 611.62,579.90 609.94,586.50 C601.87,618.34 600.00,625.95 600.00,626.95 C600.00,627.54 602.36,626.51 605.25,624.66 C608.14,622.82 613.42,619.49 617.00,617.28 C620.58,615.06 628.08,610.38 633.68,606.87 C652.04,595.38 651.44,595.51 667.32,599.66 C676.07,601.95 679.46,602.31 691.50,602.27 C703.21,602.23 707.10,601.80 715.28,599.66 C752.57,589.89 780.14,563.12 791.66,525.50 C794.25,517.04 794.42,515.38 794.39,498.00 C794.37,480.90 794.17,478.85 791.74,470.93 C782.07,439.39 762.31,416.26 733.80,403.08 C718.18,395.86 711.73,394.53 692.50,394.52 C673.16,394.51 663.89,396.09 650.63,401.63 C641.59,405.40 629.00,412.63 629.00,414.04 C629.00,414.57 628.29,415.00 627.43,415.00 C624.20,415.00 603.87,437.31 602.80,442.03 C602.63,442.75 601.66,444.21 600.63,445.29 C596.41,449.70 581.75,487.97 581.75,494.58 C581.75,495.91 581.33,497.00 580.82,497.00 C580.30,497.00 580.14,497.41 580.45,497.91 C580.76,498.42 580.48,499.01 579.84,499.22 C579.19,499.44 578.63,501.27 578.58,503.30 C578.54,505.33 578.14,507.00 577.69,507.00 C577.25,507.00 577.16,507.45 577.50,508.01 C577.85,508.56 577.42,509.72 576.56,510.58 C575.70,511.44 575.00,512.92 575.00,513.86 C575.00,517.67 564.69,546.26 558.44,559.78 C557.10,562.68 556.00,565.63 556.00,566.33 C556.00,567.03 555.59,568.03 555.10,568.55 C554.60,569.07 549.69,579.30 544.19,591.27 C529.66,622.92 518.79,640.90 506.64,653.42 C494.46,665.95 482.54,671.15 471.11,668.92 ZM 482.52 649.56 C492.23,645.50 506.12,628.48 516.61,607.78 C519.55,601.97 519.57,601.62 516.75,603.17 C515.44,603.89 510.69,604.41 505.36,604.43 C496.68,604.45 495.84,604.26 488.36,600.49 C468.44,590.43 454.20,566.60 444.15,526.50 C439.17,506.64 438.83,504.91 431.52,462.50 C425.13,425.44 420.73,404.63 418.33,400.03 C417.61,398.64 417.01,396.36 417.01,394.97 C417.00,391.82 410.52,378.12 408.21,376.36 C405.16,374.04 402.32,374.80 399.27,378.75 C394.83,384.48 392.98,389.12 389.38,403.50 C388.67,406.34 388.38,407.30 387.71,409.00 C387.19,410.32 382.00,436.23 382.00,437.51 C382.00,437.78 384.24,438.00 386.97,438.00 C391.69,438.00 392.26,438.30 397.80,443.75 C409.41,455.16 414.21,469.51 427.98,534.00 C430.15,544.17 433.08,557.90 434.49,564.50 C448.53,630.14 463.89,657.34 482.52,649.56 ZM 515.78 583.58 C524.11,579.31 534.20,567.52 540.86,554.29 C546.81,542.47 556.00,517.07 556.00,512.44 C556.00,511.10 556.45,510.00 557.00,510.00 C557.55,510.00 558.00,509.28 558.00,508.40 C558.00,507.42 555.06,509.54 550.38,513.92 C544.86,519.07 540.14,522.33 533.23,525.76 L 523.69 530.50 L 513.09 530.48 C503.54,530.46 501.99,530.20 497.34,527.76 C489.93,523.88 480.73,514.95 475.50,506.55 C469.14,496.34 464.20,484.45 454.55,456.13 C443.32,423.17 442.84,421.83 442.37,422.30 C442.15,422.52 442.65,425.98 443.50,429.99 C444.75,435.96 449.03,460.30 453.99,489.63 C457.09,508.00 464.04,535.08 468.70,547.00 C476.21,566.19 484.09,577.24 495.00,583.87 C500.07,586.95 509.48,586.82 515.78,583.58 ZM 331.26 580.25 C336.58,574.70 342.16,558.77 347.06,535.14 C349.62,522.78 349.59,522.00 346.47,522.00 C342.75,522.00 334.68,517.59 331.46,513.80 C327.61,509.26 321.95,496.70 317.56,482.99 C309.69,458.37 306.85,453.00 301.73,453.00 C298.10,453.00 294.70,457.42 288.22,470.60 C280.77,485.73 274.71,496.26 270.29,501.74 C268.41,504.08 267.16,506.45 267.51,507.02 C267.86,507.59 271.15,509.58 274.82,511.44 C287.66,517.97 296.97,530.39 307.58,555.20 C315.13,572.85 317.96,578.04 321.63,580.93 C325.21,583.74 328.12,583.53 331.26,580.25 ZM 657.76 516.61 C655.70,515.86 652.89,514.51 651.52,513.61 C645.16,509.44 642.84,496.50 647.27,489.92 C651.10,484.24 655.40,482.00 662.50,482.00 C667.80,482.00 669.30,482.43 672.83,485.00 C677.60,488.45 680.00,493.36 680.00,499.66 C680.00,511.46 668.22,520.44 657.76,516.61 ZM 718.05 515.29 C711.35,511.86 708.84,508.55 708.00,502.03 C706.49,490.24 713.72,482.00 725.58,482.00 C735.37,482.00 741.70,487.67 742.70,497.34 C743.75,507.55 737.55,515.73 727.47,517.42 C724.25,517.96 722.46,517.55 718.05,515.29 Z" fill="rgb(248,248,248)"/>
</g>
</svg>